<svg xmlns="http://www.w3.org/2000/svg" xmlns:xlink="http://www.w3.org/1999/xlink" version="1.1" width="256" height="256" viewBox="0 0 256 256" xml:space="preserve">

<defs>
</defs>
<g style="stroke: none; stroke-width: 0; stroke-dasharray: none; stroke-linecap: butt; stroke-linejoin: miter; stroke-miterlimit: 10; fill: none; fill-rule: nonzero; opacity: 1;" transform="translate(1.4065934065934016 1.4065934065934016) scale(2.81 2.81)" >
	<polygon points="61.55,89 29.69,89 21.79,48.3 69.44,48.3 " style="stroke: none; stroke-width: 1; stroke-dasharray: none; stroke-linecap: butt; stroke-linejoin: miter; stroke-miterlimit: 10; fill: rgb(235,150,109); fill-rule: nonzero; opacity: 1;" transform="  matrix(1 0 0 1 0 0) "/>
	<path d="M 61.55 90 H 29.687 c -0.479 0 -0.891 -0.34 -0.982 -0.81 l -7.894 -40.695 c -0.057 -0.293 0.021 -0.597 0.21 -0.827 c 0.19 -0.229 0.473 -0.363 0.771 -0.363 h 47.649 c 0.299 0 0.581 0.134 0.771 0.363 c 0.19 0.23 0.267 0.534 0.21 0.827 L 62.531 89.19 C 62.44 89.66 62.028 90 61.55 90 z M 30.512 88 h 30.214 l 7.504 -38.695 H 23.006 L 30.512 88 z" style="stroke: none; stroke-width: 1; stroke-dasharray: none; stroke-linecap: butt; stroke-linejoin: miter; stroke-miterlimit: 10; fill: rgb(0,0,0); fill-rule: nonzero; opacity: 1;" transform=" matrix(1 0 0 1 0 0) " stroke-linecap="round" />
	<path d="M 67.11 61.33 H 24.126 c -0.552 0 -1 -0.447 -1 -1 s 0.448 -1 1 -1 H 67.11 c 0.553 0 1 0.447 1 1 S 67.663 61.33 67.11 61.33 z" style="stroke: none; stroke-width: 1; stroke-dasharray: none; stroke-linecap: butt; stroke-linejoin: miter; stroke-miterlimit: 10; fill: rgb(0,0,0); fill-rule: nonzero; opacity: 1;" transform=" matrix(1 0 0 1 0 0) " stroke-linecap="round" />
	<path d="M 52.904 35.225 c 2.534 3.459 7.393 4.21 10.852 1.676 c 5.67 -4.153 3.372 -8.876 9.642 -12.911 c -6.634 -2.061 -13.149 -3.769 -18.819 0.384 C 51.12 26.907 50.37 31.766 52.904 35.225 z" style="stroke: none; stroke-width: 1; stroke-dasharray: none; stroke-linecap: butt; stroke-linejoin: miter; stroke-miterlimit: 10; fill: rgb(148,210,41); fill-rule: nonzero; opacity: 1;" transform=" matrix(1 0 0 1 0 0) " stroke-linecap="round" />
	<path d="M 59.187 39.403 c -0.45 0 -0.903 -0.035 -1.356 -0.104 c -2.313 -0.357 -4.35 -1.594 -5.732 -3.483 c -1.384 -1.889 -1.949 -4.203 -1.592 -6.517 c 0.357 -2.314 1.595 -4.35 3.483 -5.733 c 5.896 -4.319 12.413 -2.797 19.706 -0.532 c 0.371 0.115 0.642 0.435 0.694 0.82 c 0.052 0.385 -0.123 0.766 -0.45 0.976 c -2.992 1.925 -3.854 4.005 -4.769 6.206 c -0.92 2.217 -1.872 4.509 -4.824 6.671 C 62.828 38.82 61.034 39.403 59.187 39.403 z M 62.652 22.838 c -2.664 0 -5.161 0.642 -7.481 2.342 c -1.458 1.068 -2.412 2.639 -2.688 4.425 c -0.275 1.786 0.161 3.572 1.229 5.03 l 0 0 c 1.067 1.458 2.639 2.412 4.425 2.688 c 1.784 0.275 3.572 -0.16 5.029 -1.228 c 2.501 -1.833 3.307 -3.772 4.158 -5.825 c 0.815 -1.965 1.654 -3.984 3.884 -5.898 C 68.194 23.491 65.339 22.838 62.652 22.838 z" style="stroke: none; stroke-width: 1; stroke-dasharray: none; stroke-linecap: butt; stroke-linejoin: miter; stroke-miterlimit: 10; fill: rgb(0,0,0); fill-rule: nonzero; opacity: 1;" transform=" matrix(1 0 0 1 0 0) " stroke-linecap="round" />
	<path d="M 45 43.518 c -0.089 0 -0.179 -0.012 -0.269 -0.037 c -0.532 -0.148 -0.843 -0.7 -0.695 -1.231 c 0.758 -2.724 4.501 -7.567 8.119 -8.677 c 0.529 -0.161 1.087 0.135 1.249 0.663 c 0.162 0.528 -0.135 1.087 -0.662 1.25 c -2.864 0.879 -6.151 5.047 -6.779 7.301 C 45.84 43.228 45.438 43.518 45 43.518 z" style="stroke: none; stroke-width: 1; stroke-dasharray: none; stroke-linecap: butt; stroke-linejoin: miter; stroke-miterlimit: 10; fill: rgb(0,0,0); fill-rule: nonzero; opacity: 1;" transform=" matrix(1 0 0 1 0 0) " stroke-linecap="round" />
	<path d="M 37.096 35.225 c -2.534 3.459 -7.393 4.21 -10.852 1.676 c -5.67 -4.153 -3.372 -8.876 -9.642 -12.911 c 6.634 -2.061 13.149 -3.769 18.819 0.384 C 38.88 26.907 39.63 31.766 37.096 35.225 z" style="stroke: none; stroke-width: 1; stroke-dasharray: none; stroke-linecap: butt; stroke-linejoin: miter; stroke-miterlimit: 10; fill: rgb(148,210,41); fill-rule: nonzero; opacity: 1;" transform=" matrix(1 0 0 1 0 0) " stroke-linecap="round" />
	<path d="M 30.821 39.398 c -1.797 0 -3.609 -0.549 -5.167 -1.69 c -2.953 -2.163 -3.904 -4.455 -4.824 -6.671 c -0.914 -2.201 -1.777 -4.28 -4.769 -6.206 c -0.327 -0.21 -0.502 -0.591 -0.45 -0.976 c 0.052 -0.385 0.323 -0.705 0.694 -0.82 c 7.292 -2.265 13.808 -3.788 19.706 0.532 c 3.899 2.855 4.748 8.351 1.892 12.25 l 0 0 C 36.188 38.157 33.521 39.398 30.821 39.398 z M 18.793 24.371 c 2.229 1.915 3.068 3.934 3.883 5.898 c 0.852 2.053 1.657 3.992 4.158 5.825 c 3.009 2.205 7.251 1.548 9.455 -1.46 l 0 0 c 1.067 -1.458 1.503 -3.244 1.228 -5.03 c -0.276 -1.786 -1.23 -3.357 -2.688 -4.425 C 30.169 21.766 24.792 22.619 18.793 24.371 z M 37.096 35.225 h 0.01 H 37.096 z" style="stroke: none; stroke-width: 1; stroke-dasharray: none; stroke-linecap: butt; stroke-linejoin: miter; stroke-miterlimit: 10; fill: rgb(0,0,0); fill-rule: nonzero; opacity: 1;" transform=" matrix(1 0 0 1 0 0) " stroke-linecap="round" />
	<path d="M 45 43.518 c -0.438 0 -0.84 -0.29 -0.963 -0.732 c -0.628 -2.254 -3.914 -6.422 -6.778 -7.301 c -0.528 -0.162 -0.825 -0.722 -0.663 -1.25 c 0.163 -0.528 0.722 -0.823 1.25 -0.663 c 3.617 1.11 7.36 5.954 8.118 8.677 c 0.148 0.532 -0.163 1.083 -0.695 1.231 C 45.179 43.505 45.088 43.518 45 43.518 z" style="stroke: none; stroke-width: 1; stroke-dasharray: none; stroke-linecap: butt; stroke-linejoin: miter; stroke-miterlimit: 10; fill: rgb(0,0,0); fill-rule: nonzero; opacity: 1;" transform=" matrix(1 0 0 1 0 0) " stroke-linecap="round" />
	<path d="M 45 49.305 c -0.552 0 -1 -0.447 -1 -1 v -28.43 c 0 -0.552 0.448 -1 1 -1 s 1 0.448 1 1 v 28.43 C 46 48.857 45.552 49.305 45 49.305 z" style="stroke: none; stroke-width: 1; stroke-dasharray: none; stroke-linecap: butt; stroke-linejoin: miter; stroke-miterlimit: 10; fill: rgb(0,0,0); fill-rule: nonzero; opacity: 1;" transform=" matrix(1 0 0 1 0 0) " stroke-linecap="round" />
	<path d="M 45 19.875 c 3.493 0 6.324 -2.832 6.324 -6.324 c 0 -5.725 -4.21 -6.488 -3.843 -12.551 c -4.547 3.368 -8.806 6.826 -8.806 12.551 C 38.676 17.044 41.507 19.875 45 19.875 z" style="stroke: none; stroke-width: 1; stroke-dasharray: none; stroke-linecap: butt; stroke-linejoin: miter; stroke-miterlimit: 10; fill: rgb(148,210,41); fill-rule: nonzero; opacity: 1;" transform=" matrix(1 0 0 1 0 0) " stroke-linecap="round" />
	<path d="M 45 20.875 c -4.039 0 -7.325 -3.286 -7.325 -7.324 c 0 -6.042 4.171 -9.622 9.211 -13.354 c 0.313 -0.23 0.729 -0.261 1.071 -0.075 c 0.342 0.185 0.545 0.551 0.521 0.939 c -0.172 2.835 0.722 4.308 1.756 6.014 c 0.979 1.614 2.089 3.444 2.089 6.477 C 52.324 17.589 49.039 20.875 45 20.875 z M 46.527 2.972 c -3.979 3.075 -6.852 6.032 -6.852 10.579 c 0 2.936 2.389 5.324 5.325 5.324 c 2.936 0 5.324 -2.389 5.324 -5.324 c 0 -2.474 -0.874 -3.915 -1.799 -5.439 C 47.696 6.744 46.78 5.234 46.527 2.972 z" style="stroke: none; stroke-width: 1; stroke-dasharray: none; stroke-linecap: butt; stroke-linejoin: miter; stroke-miterlimit: 10; fill: rgb(0,0,0); fill-rule: nonzero; opacity: 1;" transform=" matrix(1 0 0 1 0 0) " stroke-linecap="round" />
</g>
</svg>